<?xml version="1.0" encoding="UTF-8" standalone="no"?>
<svg
   xmlns:dc="http://purl.org/dc/elements/1.1/"
   xmlns:cc="http://creativecommons.org/ns#"
   xmlns:rdf="http://www.w3.org/1999/02/22-rdf-syntax-ns#"
   xmlns:svg="http://www.w3.org/2000/svg"
   xmlns="http://www.w3.org/2000/svg"
   xmlns:sodipodi="http://sodipodi.sourceforge.net/DTD/sodipodi-0.dtd"
   xmlns:inkscape="http://www.inkscape.org/namespaces/inkscape"
   width="64"
   height="39"
   viewBox="0 0 64 39"
   version="1.1"
   id="svg14"
   sodipodi:docname="logo-footer.svg"
   style="fill:none"
   inkscape:version="0.92.5 (0.92.5+68)">
  <metadata
     id="metadata20">
    <rdf:RDF>
      <cc:Work
         rdf:about="">
        <dc:format>image/svg+xml</dc:format>
        <dc:type
           rdf:resource="http://purl.org/dc/dcmitype/StillImage" />
        <dc:title></dc:title>
      </cc:Work>
    </rdf:RDF>
  </metadata>
  <defs
     id="defs18" />
  <sodipodi:namedview
     pagecolor="#ffffff"
     bordercolor="#666666"
     borderopacity="1"
     objecttolerance="10"
     gridtolerance="10"
     guidetolerance="10"
     inkscape:pageopacity="0"
     inkscape:pageshadow="2"
     inkscape:window-width="1920"
     inkscape:window-height="974"
     id="namedview16"
     showgrid="false"
     fit-margin-bottom="0"
     inkscape:zoom="16"
     inkscape:cx="12.813927"
     inkscape:cy="15.158906"
     inkscape:window-x="0"
     inkscape:window-y="27"
     inkscape:window-maximized="1"
     inkscape:current-layer="svg14" />
  <path
     d="m 2.31325,36.0375 c -0.32,0 -0.60533,-0.0693 -0.856,-0.208 -0.24533,-0.144 -0.43733,-0.3387 -0.576,-0.584 -0.138667,-0.2507 -0.208,-0.536 -0.208,-0.856 0,-0.3147 0.069333,-0.5973 0.208,-0.848 0.13867,-0.2507 0.33067,-0.4453 0.576,-0.584 0.25067,-0.144 0.536,-0.216 0.856,-0.216 0.31467,0 0.59467,0.072 0.84,0.216 0.25067,0.1387 0.44533,0.3333 0.584,0.584 0.13867,0.2507 0.208,0.5333 0.208,0.848 0,0.32 -0.06933,0.6053 -0.208,0.856 -0.13867,0.2453 -0.33333,0.44 -0.584,0.584 -0.24533,0.1387 -0.52533,0.208 -0.84,0.208 z m 0,-0.328 c 0.384,0 0.69333,-0.1227 0.928,-0.368 0.23467,-0.2453 0.352,-0.5627 0.352,-0.952 0,-0.384 -0.11733,-0.6987 -0.352,-0.944 -0.23467,-0.2453 -0.544,-0.368 -0.928,-0.368 -0.38933,0 -0.70133,0.1227 -0.936,0.368 -0.23467,0.2453 -0.352,0.56 -0.352,0.944 0,0.3893 0.11733,0.7067 0.352,0.952 0.23467,0.2453 0.54667,0.368 0.936,0.368 z m -0.664,-0.48 v -1.712 h 0.8 c 0.176,0 0.31733,0.048 0.424,0.144 0.10667,0.096 0.16,0.2267 0.16,0.392 0,0.2613 -0.12533,0.4293 -0.376,0.504 l 0.448,0.672 h -0.496 l -0.392,-0.648 h -0.144 v 0.648 z m 0.424,-0.968 h 0.32 c 0.05867,0 0.10933,-0.0133 0.152,-0.04 0.04267,-0.032 0.064,-0.0827 0.064,-0.152 0,-0.064 -0.02133,-0.1093 -0.064,-0.136 -0.04267,-0.0267 -0.09333,-0.04 -0.152,-0.04 h -0.32 z m 4.8385,4.176 v -5.6 h 2.112 c 0.58133,0 1.02135,0.136 1.31995,0.408 0.2987,0.272 0.4481,0.6133 0.4481,1.024 0,0.3573 -0.096,0.6427 -0.288,0.856 -0.192,0.208 -0.424,0.3493 -0.69605,0.424 0.21335,0.0427 0.40265,0.128 0.56805,0.256 0.1706,0.128 0.304,0.288 0.4,0.48 0.096,0.192 0.144,0.4 0.144,0.624 0,0.288 -0.072,0.5493 -0.216,0.784 -0.1387,0.2293 -0.344,0.4107 -0.616,0.544 -0.27205,0.1333 -0.60538,0.2 -1.00005,0.2 z m 0.848,-3.2 h 1.16 c 0.32533,0 0.57333,-0.0747 0.744,-0.224 0.17067,-0.1547 0.256,-0.3653 0.256,-0.632 0,-0.2613 -0.08533,-0.4693 -0.256,-0.624 -0.16533,-0.1547 -0.41867,-0.232 -0.76,-0.232 h -1.144 z m 0,2.504 h 1.216 c 0.34133,0 0.60533,-0.08 0.792,-0.24 0.19205,-0.16 0.28805,-0.384 0.28805,-0.672 0,-0.288 -0.0987,-0.5147 -0.29605,-0.68 -0.19733,-0.1707 -0.464,-0.256 -0.8,-0.256 h -1.2 z m 5.40155,0.792 c -0.336,0 -0.6134,-0.056 -0.832,-0.168 -0.2187,-0.112 -0.3814,-0.2587 -0.488,-0.44 -0.1067,-0.1867 -0.16,-0.3893 -0.16,-0.608 0,-0.384 0.1493,-0.688 0.448,-0.912 0.2986,-0.224 0.7253,-0.336 1.28,-0.336 h 1.04 v -0.072 c 0,-0.3093 -0.0854,-0.5413 -0.256,-0.696 -0.1654,-0.1547 -0.3814,-0.232 -0.648,-0.232 -0.2347,0 -0.44,0.0587 -0.616,0.176 -0.1707,0.112 -0.2747,0.28 -0.312,0.504 h -0.848 c 0.0266,-0.288 0.1226,-0.5333 0.288,-0.736 0.1706,-0.208 0.384,-0.3653 0.64,-0.472 0.2613,-0.112 0.5466,-0.168 0.856,-0.168 0.5546,0 0.984,0.1467 1.288,0.44 0.304,0.288 0.456,0.6827 0.456,1.184 v 2.44 h -0.736 l -0.072,-0.68 c -0.112,0.2187 -0.2747,0.4027 -0.488,0.552 -0.2134,0.1493 -0.4934,0.224 -0.84,0.224 z m 0.168,-0.688 c 0.2293,0 0.4213,-0.0533 0.576,-0.16 0.16,-0.112 0.2826,-0.2587 0.368,-0.44 0.0906,-0.1813 0.1466,-0.3813 0.168,-0.6 h -0.944 c -0.336,0 -0.576,0.0587 -0.72,0.176 -0.1387,0.1173 -0.208,0.264 -0.208,0.44 0,0.1813 0.0666,0.3253 0.2,0.432 0.1386,0.1013 0.3253,0.152 0.56,0.152 z m 4.5426,0.592 c -0.3894,0 -0.6987,-0.0933 -0.928,-0.28 -0.2294,-0.192 -0.344,-0.5307 -0.344,-1.016 v -1.96 h -0.68 v -0.712 h 0.68 l 0.104,-1.008 h 0.744 v 1.008 h 1.12 v 0.712 h -1.12 v 1.96 c 0,0.2187 0.0453,0.3707 0.136,0.456 0.096,0.08 0.2586,0.12 0.488,0.12 h 0.456 v 0.72 z m 2.9144,0.096 c -0.336,0 -0.6134,-0.056 -0.832,-0.168 -0.2187,-0.112 -0.3814,-0.2587 -0.488,-0.44 -0.1067,-0.1867 -0.16,-0.3893 -0.16,-0.608 0,-0.384 0.1493,-0.688 0.448,-0.912 0.2986,-0.224 0.7253,-0.336 1.28,-0.336 h 1.04 v -0.072 c 0,-0.3093 -0.0854,-0.5413 -0.256,-0.696 -0.1654,-0.1547 -0.3814,-0.232 -0.648,-0.232 -0.2347,0 -0.44,0.0587 -0.616,0.176 -0.1707,0.112 -0.2747,0.28 -0.312,0.504 h -0.848 c 0.0266,-0.288 0.1226,-0.5333 0.288,-0.736 0.1706,-0.208 0.384,-0.3653 0.64,-0.472 0.2613,-0.112 0.5466,-0.168 0.856,-0.168 0.5546,0 0.984,0.1467 1.288,0.44 0.304,0.288 0.456,0.6827 0.456,1.184 v 2.44 h -0.736 l -0.072,-0.68 c -0.112,0.2187 -0.2747,0.4027 -0.488,0.552 -0.2134,0.1493 -0.4934,0.224 -0.84,0.224 z m 0.168,-0.688 c 0.2293,0 0.4213,-0.0533 0.576,-0.16 0.16,-0.112 0.2826,-0.2587 0.368,-0.44 0.0906,-0.1813 0.1466,-0.3813 0.168,-0.6 h -0.944 c -0.336,0 -0.576,0.0587 -0.72,0.176 -0.1387,0.1173 -0.208,0.264 -0.208,0.44 0,0.1813 0.0666,0.3253 0.2,0.432 0.1386,0.1013 0.3253,0.152 0.56,0.152 z m 4.5426,0.592 c -0.3894,0 -0.6987,-0.0933 -0.928,-0.28 -0.2294,-0.192 -0.344,-0.5307 -0.344,-1.016 v -1.96 h -0.68 v -0.712 h 0.68 l 0.104,-1.008 h 0.744 v 1.008 h 1.12 v 0.712 h -1.12 v 1.96 c 0,0.2187 0.0453,0.3707 0.136,0.456 0.096,0.08 0.2586,0.12 0.488,0.12 h 0.456 v 0.72 z m 2.9144,0.096 c -0.336,0 -0.6134,-0.056 -0.832,-0.168 -0.2187,-0.112 -0.3814,-0.2587 -0.488,-0.44 -0.1067,-0.1867 -0.16,-0.3893 -0.16,-0.608 0,-0.384 0.1493,-0.688 0.448,-0.912 0.2986,-0.224 0.7253,-0.336 1.28,-0.336 h 1.04 v -0.072 c 0,-0.3093 -0.0854,-0.5413 -0.256,-0.696 -0.1654,-0.1547 -0.3814,-0.232 -0.648,-0.232 -0.2347,0 -0.44,0.0587 -0.616,0.176 -0.1707,0.112 -0.2747,0.28 -0.312,0.504 h -0.848 c 0.0266,-0.288 0.1226,-0.5333 0.288,-0.736 0.1706,-0.208 0.384,-0.3653 0.64,-0.472 0.2613,-0.112 0.5466,-0.168 0.856,-0.168 0.5546,0 0.984,0.1467 1.288,0.44 0.304,0.288 0.456,0.6827 0.456,1.184 v 2.44 h -0.736 l -0.072,-0.68 c -0.112,0.2187 -0.2747,0.4027 -0.488,0.552 -0.2134,0.1493 -0.4934,0.224 -0.84,0.224 z m 0.168,-0.688 c 0.2293,0 0.4213,-0.0533 0.576,-0.16 0.16,-0.112 0.2826,-0.2587 0.368,-0.44 0.0906,-0.1813 0.1466,-0.3813 0.168,-0.6 h -0.944 c -0.336,0 -0.576,0.0587 -0.72,0.176 -0.1387,0.1173 -0.208,0.264 -0.208,0.44 0,0.1813 0.0666,0.3253 0.2,0.432 0.1386,0.1013 0.3253,0.152 0.56,0.152 z m 5.1887,0.688 c -0.3093,0 -0.584,-0.0613 -0.824,-0.184 -0.2347,-0.1227 -0.4213,-0.296 -0.56,-0.52 l -0.088,0.608 h -0.76 v -5.76 h 0.848 v 2.408 c 0.128,-0.1867 0.304,-0.352 0.528,-0.496 0.224,-0.144 0.512,-0.216 0.864,-0.216 0.384,0 0.7227,0.0907 1.016,0.272 0.2933,0.1813 0.5227,0.4293 0.688,0.744 0.1707,0.3147 0.256,0.672 0.256,1.072 0,0.4 -0.0853,0.7573 -0.256,1.072 -0.1653,0.3093 -0.3947,0.5547 -0.688,0.736 -0.2933,0.176 -0.6347,0.264 -1.024,0.264 z m -0.144,-0.736 c 0.3627,0 0.6613,-0.1227 0.896,-0.368 0.2347,-0.2507 0.352,-0.576 0.352,-0.976 0,-0.2613 -0.0533,-0.4933 -0.16,-0.696 -0.1067,-0.2027 -0.2533,-0.36 -0.44,-0.472 -0.1867,-0.1173 -0.4027,-0.176 -0.648,-0.176 -0.3627,0 -0.6613,0.1253 -0.896,0.376 -0.2293,0.2507 -0.344,0.5733 -0.344,0.968 0,0.4 0.1147,0.7253 0.344,0.976 0.2347,0.2453 0.5333,0.368 0.896,0.368 z m 3.5092,-4.08 c -0.16,0 -0.2933,-0.048 -0.4,-0.144 -0.1013,-0.1013 -0.152,-0.2267 -0.152,-0.376 0,-0.1493 0.0507,-0.272 0.152,-0.368 0.1067,-0.1013 0.24,-0.152 0.4,-0.152 0.16,0 0.2907,0.0507 0.392,0.152 0.1067,0.096 0.16,0.2187 0.16,0.368 0,0.1493 -0.0533,0.2747 -0.16,0.376 -0.1013,0.096 -0.232,0.144 -0.392,0.144 z m -0.424,4.72 v -3.968 h 0.848 v 3.968 z m 3.6314,0 c -0.3893,0 -0.6986,-0.0933 -0.928,-0.28 -0.2293,-0.192 -0.344,-0.5307 -0.344,-1.016 v -1.96 h -0.68 v -0.712 h 0.68 l 0.104,-1.008 h 0.744 v 1.008 h 1.12 v 0.712 h -1.12 v 1.96 c 0,0.2187 0.0454,0.3707 0.136,0.456 0.096,0.08 0.2587,0.12 0.488,0.12 h 0.456 v 0.72 z m 3.506,0 v -0.608 c 0.3627,-0.288 0.7094,-0.5787 1.04,-0.872 0.3307,-0.2933 0.624,-0.5813 0.88,-0.864 0.2614,-0.288 0.4667,-0.568 0.616,-0.84 0.1494,-0.2773 0.224,-0.544 0.224,-0.8 0,-0.1707 -0.0293,-0.3307 -0.088,-0.48 -0.0586,-0.1547 -0.1546,-0.2773 -0.288,-0.368 -0.1333,-0.096 -0.312,-0.144 -0.536,-0.144 -0.336,0 -0.5893,0.1067 -0.76,0.32 -0.1653,0.2133 -0.2453,0.4693 -0.24,0.768 h -0.824 c 0.0054,-0.3947 0.088,-0.7253 0.248,-0.992 0.1654,-0.2667 0.384,-0.4693 0.656,-0.608 0.2774,-0.1387 0.5894,-0.208 0.936,-0.208 0.528,0 0.9494,0.1493 1.264,0.448 0.32,0.2933 0.48,0.704 0.48,1.232 0,0.3147 -0.0773,0.6267 -0.232,0.936 -0.1493,0.3093 -0.3466,0.608 -0.592,0.896 -0.24,0.2827 -0.4986,0.5493 -0.776,0.8 -0.2773,0.2507 -0.5413,0.4773 -0.792,0.68 h 2.56 v 0.704 z m 6.8677,0.096 c -0.5067,0 -0.944,-0.12 -1.312,-0.36 -0.3627,-0.2453 -0.6427,-0.584 -0.84,-1.016 -0.192,-0.4373 -0.288,-0.944 -0.288,-1.52 0,-0.576 0.096,-1.08 0.288,-1.512 0.1973,-0.4373 0.4773,-0.776 0.84,-1.016 0.368,-0.2453 0.8053,-0.368 1.312,-0.368 0.5066,0 0.9413,0.1227 1.3039,0.368 0.3627,0.24 0.6401,0.5787 0.8321,1.016 0.1973,0.432 0.296,0.936 0.296,1.512 0,0.576 -0.0987,1.0827 -0.296,1.52 -0.192,0.432 -0.4694,0.7707 -0.8321,1.016 -0.3626,0.24 -0.7973,0.36 -1.3039,0.36 z m 0,-0.76 c 0.304,0 0.5733,-0.0853 0.808,-0.256 0.24,-0.1707 0.4266,-0.416 0.56,-0.736 0.1333,-0.32 0.2,-0.7013 0.2,-1.144 0,-0.4427 -0.0667,-0.824 -0.2,-1.144 -0.1334,-0.32 -0.32,-0.5653 -0.56,-0.736 -0.2347,-0.1707 -0.504,-0.256 -0.808,-0.256 -0.3094,0 -0.5814,0.0853 -0.816,0.256 -0.2347,0.1707 -0.4187,0.416 -0.552,0.736 -0.1334,0.32 -0.2,0.7013 -0.2,1.144 0,0.4427 0.0666,0.824 0.2,1.144 0.1333,0.32 0.3173,0.5653 0.552,0.736 0.2346,0.1707 0.5066,0.256 0.816,0.256 z m 3.2026,0.664 v -0.608 c 0.3627,-0.288 0.7094,-0.5787 1.04,-0.872 0.3307,-0.2933 0.624,-0.5813 0.88,-0.864 0.2614,-0.288 0.4667,-0.568 0.616,-0.84 0.1494,-0.2773 0.224,-0.544 0.224,-0.8 0,-0.1707 -0.0293,-0.3307 -0.088,-0.48 -0.0586,-0.1547 -0.1546,-0.2773 -0.288,-0.368 -0.1333,-0.096 -0.312,-0.144 -0.536,-0.144 -0.336,0 -0.5893,0.1067 -0.76,0.32 -0.1653,0.2133 -0.2453,0.4693 -0.24,0.768 h -0.824 c 0.0054,-0.3947 0.088,-0.7253 0.248,-0.992 0.1654,-0.2667 0.384,-0.4693 0.656,-0.608 0.2774,-0.1387 0.5894,-0.208 0.936,-0.208 0.528,0 0.9494,0.1493 1.264,0.448 0.32,0.2933 0.48,0.704 0.48,1.232 0,0.3147 -0.0773,0.6267 -0.232,0.936 -0.1493,0.3093 -0.3466,0.608 -0.592,0.896 -0.24,0.2827 -0.4986,0.5493 -0.776,0.8 -0.2773,0.2507 -0.5413,0.4773 -0.792,0.68 h 2.56 v 0.704 z m 6.8677,0.096 c -0.5067,0 -0.944,-0.12 -1.312,-0.36 -0.3627,-0.2453 -0.6427,-0.584 -0.84,-1.016 -0.192,-0.4373 -0.288,-0.944 -0.288,-1.52 0,-0.576 0.096,-1.08 0.288,-1.512 0.1973,-0.4373 0.4773,-0.776 0.84,-1.016 0.368,-0.2453 0.8053,-0.368 1.312,-0.368 0.5066,0 0.9413,0.1227 1.304,0.368 0.3626,0.24 0.64,0.5787 0.832,1.016 0.1973,0.432 0.296,0.936 0.296,1.512 0,0.576 -0.0987,1.0827 -0.296,1.52 -0.192,0.432 -0.4694,0.7707 -0.832,1.016 -0.3627,0.24 -0.7974,0.36 -1.304,0.36 z m 0,-0.76 c 0.304,0 0.5733,-0.0853 0.808,-0.256 0.24,-0.1707 0.4266,-0.416 0.56,-0.736 0.1333,-0.32 0.2,-0.7013 0.2,-1.144 0,-0.4427 -0.0667,-0.824 -0.2,-1.144 -0.1334,-0.32 -0.32,-0.5653 -0.56,-0.736 -0.2347,-0.1707 -0.504,-0.256 -0.808,-0.256 -0.3094,0 -0.5814,0.0853 -0.816,0.256 -0.2347,0.1707 -0.4187,0.416 -0.552,0.736 -0.1334,0.32 -0.2,0.7013 -0.2,1.144 0,0.4427 0.0666,0.824 0.2,1.144 0.1333,0.32 0.3173,0.5653 0.552,0.736 0.2346,0.1707 0.5066,0.256 0.816,0.256 z"
     id="path2"
     inkscape:connector-curvature="0"
     style="fill:#ffe9d5" />
  <path
     d="m 28.8281,20.7213 c -6.4233,1.9972 -16.7979,-0.0439 -16.89,-8.9389 -0.0922,-8.89507 10.98,-3.59638 10.98,-3.59638 z"
     id="path4"
     inkscape:connector-curvature="0"
     style="fill:#ffc250" />
  <path
     d="m 15.0611,6.79176 c 4.483,-0.76818 7.8877,5.17224 11.6547,11.36894 3.7669,6.1968 13.5759,8.653 19.8435,3.4418 C 52.8268,16.3914 55.4795,7.26463 47.7839,1.82067 40.0884,-3.62329 35.2846,8.73622 28.6596,9.07595 22.0347,9.41569 21.9864,4.49117 15.0611,6.79176 Z"
     id="path6"
     inkscape:connector-curvature="0"
     style="fill:#ffd064" />
  <circle
     cx="47.134701"
     cy="12.059399"
     r="1.96745"
     id="circle8"
     style="fill:#ffe19d" />
  <circle
     cx="43.363701"
     cy="13.534901"
     r="1.47559"
     id="circle10"
     style="fill:#ffe19d" />
  <circle
     cx="45.987"
     cy="15.5023"
     r="1.14768"
     id="circle12"
     style="fill:#ffe19d" />
  <rect
     id="rect68"
     width="142.0206"
     height="64.718246"
     x="-60.223927"
     y="-37.70311" />
</svg>
