<svg id="Layer_1" enable-background="new 0 0 512 512" height="512" viewBox="0 0 512 512" width="512" xmlns="http://www.w3.org/2000/svg"><g><g><g><g><g><g id="XMLID_2265_"><g id="XMLID_2266_"><g id="XMLID_2267_"><g id="XMLID_2268_"><g id="XMLID_2269_"><g id="XMLID_2270_"><g id="XMLID_2271_"><g id="XMLID_2272_"><g id="XMLID_2273_"><g id="XMLID_2274_"><g id="XMLID_2275_"><g id="XMLID_2276_"><g id="XMLID_2277_"><g id="XMLID_2378_"><g id="XMLID_2379_"><circle cx="256" cy="256" fill="#7a3db4" r="256"/></g></g></g></g></g></g></g></g></g></g></g></g></g></g></g></g></g></g></g><path d="m393.232 129.295c-19.879-11.353-87.622-40.172-143.144-24.967-113.899 31.19-119.596 288.918-119.596 288.918l118.662 118.662c2.275.06 4.557.093 6.846.093 141.385 0 256-114.615 256-256 0-2.691-.056-5.369-.138-8.04l-118.901-118.796c.089.045.181.086.271.13z" fill="#524798"/><g><path d="m400.271 172.778 10.333 17.898h20.668l-10.334 17.898 10.334 17.899h-20.668l-10.333 17.898-10.334-17.898h-20.667l10.334-17.899-10.334-17.898h20.667z" fill="#ffdf5a"/><path d="m420.94 208.572 10.328 17.903h-20.662l-10.335 17.895v-71.595l10.335 17.902h20.662z" fill="#ffcb00"/></g><g><path d="m193.938 256c0-78.135 58.172-141.477 136.307-141.477 22.632 0 44.018 5.323 62.987 14.772-34.038-36.695-82.664-59.669-136.662-59.669-102.932 0-186.374 83.443-186.374 186.374s83.442 186.374 186.374 186.374c53.999 0 102.624-22.973 136.662-59.669-18.97 9.448-40.355 14.772-62.987 14.772-78.136 0-136.307-63.342-136.307-141.477z" fill="#fff"/></g><g fill="#dbdbdb"><path d="m330.24 397.48c22.64 0 44.02-5.33 62.99-14.78-34.04 36.7-82.66 59.67-136.66 59.67-13.23 0-26.14-1.38-38.58-4.01v-100.91c24.11 36.31 64.44 60.03 112.25 60.03z"/><path d="m217.99 174.55v-100.91c12.44-2.63 25.35-4.01 38.58-4.01 54 0 102.62 22.97 136.66 59.67-18.97-9.45-40.35-14.78-62.99-14.78-47.81 0-88.14 23.72-112.25 60.03z"/></g><g><path d="m305.479 237.284 15.499 26.844h30.997l-15.499 26.845 15.499 26.844h-30.997l-15.499 26.844-15.498-26.844h-30.997l15.498-26.844-15.498-26.845h30.997z" fill="#ffdf5a"/><path d="m336.48 290.97 15.49 26.85h-30.99l-15.5 26.84v-107.38l15.5 26.85h30.99z" fill="#ffcb00"/></g></g></svg>