<?xml version="1.0" encoding="iso-8859-1"?>
<!-- Generator: Adobe Illustrator 19.0.0, SVG Export Plug-In . SVG Version: 6.00 Build 0)  -->
<svg version="1.1" id="Layer_1" xmlns="http://www.w3.org/2000/svg" xmlns:xlink="http://www.w3.org/1999/xlink" x="0px" y="0px"
	 viewBox="0 0 512 512" style="enable-background:new 0 0 512 512;" xml:space="preserve">
<circle style="fill:#394CE2;" cx="255.996" cy="255.996" r="255.996"/>
<path style="fill:#1B2DDD;" d="M512,255.999c0-5.782-0.211-11.516-0.588-17.203L407.665,135.05l-17.52-0.691l-49.978-53.136
	l-45.39,19.695l-38.778-38.906l-35.024,40.535l-49.144-21.324l-13.969,51.718l-53.529,2.11l9.854,52.657l-47.312,25.126
	L98.6,255.999l-31.725,43.166l43.85,43.632l-6.391,34.151L244.01,511.712c3.975,0.183,7.969,0.288,11.989,0.288
	C397.385,512,512,397.385,512,255.999z"/>
<polygon style="fill:#FF8800;" points="255.999,62.013 291.024,102.547 340.168,81.223 354.136,132.94 407.665,135.051 
	397.811,187.707 445.123,212.833 413.399,255.999 445.123,299.166 397.811,324.293 407.665,376.949 354.136,379.06 340.168,430.776 
	291.024,409.452 255.999,449.987 220.975,409.452 171.832,430.776 157.863,379.06 104.335,376.949 114.189,324.293 66.877,299.166 
	98.601,255.999 66.877,212.833 114.189,187.707 104.335,135.051 157.863,132.94 171.832,81.223 220.975,102.547 "/>
<polygon style="fill:#E67500;" points="413.399,255.999 445.123,212.833 397.811,187.707 407.665,135.05 354.136,132.94 
	340.168,81.223 291.024,102.547 255.999,62.013 255.996,62.016 255.996,449.984 255.999,449.987 291.024,409.453 340.168,430.776 
	354.136,379.06 407.665,376.949 397.811,324.293 445.123,299.166 "/>
<circle style="fill:#FFD400;" cx="255.996" cy="255.996" r="130.704"/>
<path style="fill:#FEC000;" d="M255.999,125.292c-0.001,0-0.002,0-0.003,0v261.417c0.001,0,0.002,0,0.003,0
	c72.188,0,130.709-58.52,130.709-130.709S328.188,125.292,255.999,125.292z"/>
<g>
</g>
<g>
</g>
<g>
</g>
<g>
</g>
<g>
</g>
<g>
</g>
<g>
</g>
<g>
</g>
<g>
</g>
<g>
</g>
<g>
</g>
<g>
</g>
<g>
</g>
<g>
</g>
<g>
</g>
</svg>
