<svg id="Layer_1" enable-background="new 0 0 512 512" height="512" viewBox="0 0 512 512" width="512" xmlns="http://www.w3.org/2000/svg"><g><g><g><g><g><g id="XMLID_1402_"><g id="XMLID_1403_"><g id="XMLID_1404_"><g id="XMLID_1405_"><g id="XMLID_1406_"><g id="XMLID_1407_"><g id="XMLID_1408_"><g id="XMLID_1505_"><g id="XMLID_1506_"><g id="XMLID_1507_"><g id="XMLID_1508_"><g id="XMLID_1724_"><g id="XMLID_1929_"><g id="XMLID_1933_"><g id="XMLID_1997_"><circle cx="256" cy="256" fill="#7a3db4" r="256"/></g></g></g></g></g></g></g></g></g></g></g></g></g></g></g></g></g></g></g><path d="m363.052 132.679-98.376-98.619 9.76 29.28-62.935 200.79c-104.324-55.147-177.441-16.806-177.441-16.806 6.795-1.046 85.404 85.116 85.404 85.116l-26.534 74.36 96.443 96.443c21.244 5.711 43.58 8.757 66.627 8.757 141.385 0 256-114.615 256-256 0-23.047-3.046-45.383-8.757-66.627l-84.173-84.173c-13.796 18.818-33.026 22.691-56.018 27.479z" fill="#524798"/><g><g><path d="m229.625 173.18s-4.607-10.879-4.607-42.007c-.001-41.465 45.208-61.079 39.658-97.113 0 0 78.775 74.8 11.161 139.12z" fill="#ff9d21"/><path d="m302.687 123.798c-1.909 15.27-8.89 31.172-23.987 46.554-.929.949-1.878 1.888-2.868 2.827h-19.832v-105.744c6.359-10.207 10.615-20.792 8.676-33.377 0 0 44.003 41.777 38.011 89.74z" fill="#ff8659"/><path d="m282.375 338.82s4.607 10.879 4.607 42.007c.001 41.465-45.208 61.079-39.658 97.113 0 0-78.775-74.8-11.161-139.12z" fill="#ff9d21"/><g><g><g><path d="m286.978 380.822c0 4.297-.48 8.349-1.347 12.218-4.552 20.445-19.679 35.531-29.631 51.525v-105.745h26.375s.214.5.541 1.592c1.225 4.012 4.062 15.975 4.062 40.41z" fill="#ff8659"/></g></g></g></g><g><path d="m338.82 229.625s10.879-4.607 42.007-4.607c41.465-.001 61.079 45.208 97.113 39.658 0 0-74.8 78.774-139.12 11.161z" fill="#ff8659"/><path d="m173.18 282.375s-10.879 4.607-42.007 4.607c-41.465.001-61.079-45.208-97.113-39.658 0 0 74.8-78.774 139.12-11.161z" fill="#ff9d21"/></g><g><path d="m295.912 178.787s4.435-10.95 26.446-32.961c29.32-29.321 75.156-11.223 96.712-40.627 0 0 2.811 108.593-90.481 106.265z" fill="#ff8659"/><path d="m216.088 333.213s-4.436 10.95-26.446 32.961c-29.32 29.321-75.156 11.223-96.712 40.627 0 0-2.811-108.593 90.481-106.265z" fill="#ff9d21"/></g><g><path d="m333.213 295.912s10.95 4.435 32.961 26.446c29.321 29.32 11.223 75.156 40.627 96.712 0 0-108.593 2.811-106.265-90.481z" fill="#ff8659"/><path d="m178.787 216.088s-10.95-4.435-32.961-26.446c-29.321-29.32-11.223-75.156-40.627-96.712 0 0 108.593-2.811 106.265 90.481z" fill="#ff9d21"/></g><g><g><g><g id="XMLID_1489_"><g id="XMLID_1490_"><g id="XMLID_1491_"><g id="XMLID_1492_"><g id="XMLID_1493_"><g id="XMLID_1494_"><g id="XMLID_1495_"><g id="XMLID_1594_"><g id="XMLID_1605_"><g id="XMLID_1606_"><g id="XMLID_1616_"><g id="XMLID_1617_"><g id="XMLID_1618_"><g id="XMLID_1619_"><g id="XMLID_1620_"><ellipse cx="256" cy="256" fill="#ffcb00" rx="140.171" ry="140.171" transform="matrix(.707 -.707 .707 .707 -106.039 256)"/></g></g></g></g></g></g></g></g></g></g></g></g></g></g></g></g></g></g><g><g><g><g><g id="XMLID_1425_"><g id="XMLID_1426_"><g id="XMLID_1427_"><g id="XMLID_1428_"><g id="XMLID_1429_"><g id="XMLID_1430_"><g id="XMLID_1431_"><g id="XMLID_1432_"><g id="XMLID_1433_"><g id="XMLID_1434_"><g id="XMLID_1435_"><g id="XMLID_1436_"><g id="XMLID_1437_"><g id="XMLID_1438_"><g><path d="m396.174 256c0 67.244-47.361 123.434-110.543 137.04-9.554 2.052-19.465 3.134-29.631 3.134v-280.348c16.372 0 32.081 2.807 46.687 7.972 54.465 19.23 93.487 71.164 93.487 132.202z" fill="#ffb454"/></g></g></g></g></g></g></g></g></g></g></g></g></g></g></g></g></g></g></g><g><g><g><g><g id="XMLID_1502_"><g id="XMLID_1747_"><g id="XMLID_1748_"><g id="XMLID_1749_"><g id="XMLID_1750_"><g id="XMLID_1751_"><g id="XMLID_2062_"><g id="XMLID_2063_"><g id="XMLID_2064_"><g id="XMLID_2065_"><g id="XMLID_2096_"><g id="XMLID_2097_"><g id="XMLID_2098_"><g id="XMLID_2099_"><g id="XMLID_2100_"><circle cx="256" cy="256" fill="#ff9d21" r="88.591"/></g></g></g></g></g></g></g></g></g></g></g></g></g></g></g></g></g></g></g><g><g><g><g><g id="XMLID_1681_"><g id="XMLID_1682_"><g id="XMLID_1683_"><g id="XMLID_1684_"><g id="XMLID_1685_"><g id="XMLID_1686_"><g id="XMLID_1687_"><g id="XMLID_1688_"><g id="XMLID_1689_"><g id="XMLID_1714_"><g id="XMLID_1715_"><g id="XMLID_1744_"><g id="XMLID_1745_"><g id="XMLID_1746_"><g><path d="m344.587 256c0 39.542-25.906 73.032-61.671 84.413-8.492 2.715-17.536 4.175-26.916 4.175v-177.175c7.849 0 15.453 1.021 22.701 2.94 37.929 10.023 65.886 44.574 65.886 85.647z" fill="#ff8659"/></g></g></g></g></g></g></g></g></g></g></g></g></g></g></g></g></g></g></g></g></g></svg>